<svg data-v-2cb57da0="" version="1.0" xmlns="http://www.w3.org/2000/svg" xmlns:xlink="http://www.w3.org/1999/xlink" width="100%" height="100%" viewBox="0 0 340.000000 250.000000" preserveAspectRatio="xMidYMid meet" color-interpolation-filters="sRGB" style="margin: auto;"><rect data-v-2cb57da0="" x="0" y="0" width="100%" height="100%" fill="#ffffff" fill-opacity="1" class="background"></rect> <rect data-v-2cb57da0="" x="0" y="0" width="100%" height="100%" fill="url(#watermark)" fill-opacity="1" class="watermarklayer"></rect> <g data-v-2cb57da0="" fill="#bf817f" class="iconlettersvg-g iconlettersvg" transform="translate(68.3150405883789,73.99980163574219)"><g><g class="tp-name"><g transform="scale(2.040000000000001)"><g transform="translate(0, 0)"><g class="name-imagesvg"><g><rect fill="#bf817f" fill-opacity="0" stroke-width="2" x="0" y="0" width="18.949937788635992" height="49.99983585392082" class="image-rect"></rect> <svg x="0" y="0" width="18.949937788635992" height="49.99983585392082" filtersec="colorsb7707588242" class="image-svg-svg primary" style="overflow: visible;"><svg xmlns="http://www.w3.org/2000/svg" viewBox="0 -0.01421170961111784 35.82844924926758 94.53447723388672"><path d="M30.4 74.81a.28.28 0 0 0-.4-.26 2.88 2.88 0 0 0-.31.13 13.81 13.81 0 0 0-2.14 0l.09-.14c.19-.35-.07-.54-.36-.51V71.5l.08-.09c.23-.34.14-.58-.08-.68 0-9.25 0-18.5.1-27.76.08-7.51 1.6-17.27-.05-24.82a17.61 17.61 0 0 0 7.53-9C36.53 4.67 33 1.94 29.18.87A29.89 29.89 0 0 0 17.71.29a.38.38 0 0 0-.33 0h-.08c-7 1-13.86 4.3-15.8 10.36A6.05 6.05 0 0 0 0 14.54a4.31 4.31 0 0 0 1.69 3.26c1.79 1.46 4.9 2 7.17 2.39l.61.1h.13A193.39 193.39 0 0 0 9.39 40c.07 2.88.14 5.77.15 8.69s-.12 5.83-.25 9c-.2 4.63-.41 9.41-.16 14 0 1.46-.05 2.8-.05 4.08a16.52 16.52 0 0 0-6.7 6.13A11.56 11.56 0 0 0 1 85.22a5.68 5.68 0 0 0-1 3.07 4.31 4.31 0 0 0 1.69 3.26c1.79 1.47 4.9 2 7.17 2.39l.61.11a26.46 26.46 0 0 0 5 .22 26.63 26.63 0 0 1 4.38.17 6.19 6.19 0 0 0 1.05.08 9.63 9.63 0 0 0 4.77-1.46c4.55-1.34 8.93-4.35 10.53-8.89 1.8-5.27-.41-8.64-4.8-9.36zm3.81 6a.43.43 0 0 0-.29 0 16.58 16.58 0 0 0-3.74 3.78 4.48 4.48 0 0 0-.47-1.8c.66-.63 1.32-1.26 2-1.9s1.44-1.28 2.11-2a5.34 5.34 0 0 1 .39 1.92zm-1-2.83a20.11 20.11 0 0 0-1.66 1.67c-.79.82-1.54 1.67-2.3 2.52a5.53 5.53 0 0 0-1.81-1.5 8 8 0 0 0 1.92-1.33 13.16 13.16 0 0 0 2.49-2.62A5.66 5.66 0 0 1 33.17 78zm-3.48-2.25a9.81 9.81 0 0 1 1.44.57 45.88 45.88 0 0 1-4.6 4 5.55 5.55 0 0 0-.52-.2 9.1 9.1 0 0 0-.91-.16 21.82 21.82 0 0 0 2.23-2c.7-.74 1.55-1.44 2.32-2.21zm-1.34-.31c-1.54 1.19-2.81 3.12-4.13 4.28v.06c-.23 0-.43-.1-.67-.11a25.49 25.49 0 0 0 3.68-4.41c.33.03.73.12 1.08.18zM23 27.9v-2.55a30.37 30.37 0 0 0 3.3-2.3v2.3A9.11 9.11 0 0 0 23 27.9zm3.19-1.26v2.46a.57.57 0 0 0-.24.08A27.46 27.46 0 0 0 23 31.76v-3a12.51 12.51 0 0 0 1.22-.88 14.28 14.28 0 0 1 1.99-1.24zm-3.26-2.24c0-.55 0-1.1-.08-1.65a10.47 10.47 0 0 0 3.49-2.22v1.57a9.73 9.73 0 0 0-3.41 2.3zm0 18.31a21.29 21.29 0 0 0 3.22-3.15v6.47c-1.14.8-2.16 1.76-3.3 2.57-.05-1.95-.03-3.92.04-5.89zm3.2 4.21v2.35a14 14 0 0 0-3.3 2.88v-1.36-1.51a13.69 13.69 0 0 0 3.26-2.36zm0 3.34v6.6a18.75 18.75 0 0 0-3.17 2.31c-.05-2-.1-4-.13-6 1.11-.94 2.22-1.91 3.26-2.91zM23 59.82a19.32 19.32 0 0 0 3.09-2.13v1.7A19.78 19.78 0 0 0 23 62.55v-1.18-1.54zm.08 3.47a29.56 29.56 0 0 0 3-2.73V63c-1.3.46-2.06 1.71-3.06 2.62V63.3c.03.02.06.02.08-.01zm3-24.92c-1.21 1-2.08 2.39-3.21 3.51 0-.52 0-1.05.05-1.57s0-1 0-1.51a14 14 0 0 0 3.16-2.17c.03.58.04 1.16.03 1.74zM23 37.93v-5.11c1.11-.82 2.1-1.8 3.16-2.7v5.29c-1.16.7-2.16 1.7-3.16 2.52zm3.41-18.45c-1.31.64-2.32 1.76-3.57 2.53-.05-.53-.06-1.07-.12-1.61a25.62 25.62 0 0 0 3.71-1.7c-.05.3-.05.52-.06.78zm-3.36 46.84a34.75 34.75 0 0 0 3.06-2.5v2.93a7.74 7.74 0 0 0-3 3.4c-.03-1.28-.03-2.56-.06-3.83zm1.75 2.88a13.71 13.71 0 0 1 1.32-1.32v3.42a21.68 21.68 0 0 0-2.85 3.06 1.71 1.71 0 0 0-.11.14v-2.94a28 28 0 0 1 1.64-2.36zm-1.65 6.88c.57-.69 1.22-1.42 1.33-1.55.52-.59 1.1-1.15 1.66-1.72v2.11a26.13 26.13 0 0 0-3 3.84c.02-.89 0-1.76.01-2.68zm5.16-60a8.38 8.38 0 0 0 1.93-4.66v-.3a22.19 22.19 0 0 0 3.52-2.46c-.22 2.85-2.65 5.34-5.45 7.4zm5.09-9.89a6.07 6.07 0 0 1 .36 1.73.53.53 0 0 0-.48.09c-1.07.73-2.11 1.52-3.15 2.31a4.48 4.48 0 0 0-.8-1.83 11.07 11.07 0 0 0 4-2.5c-.02.07.04.12.07.2zm-.5-.82a20.62 20.62 0 0 1-3.9 2.7 6.7 6.7 0 0 0-3-1.71l1.3-.91a18.22 18.22 0 0 1 2.2-1.32 7.1 7.1 0 0 1 1.72-.52 5.54 5.54 0 0 1 1.68 1.76zm-3.34-2.6c-.44.22-.85.47-1.18.67A38.69 38.69 0 0 0 25 6.15a17.45 17.45 0 0 0-3.53-.3c.68-.61 1.36-1.24 2.09-1.8a16.77 16.77 0 0 1 3.71-1.92 12.39 12.39 0 0 1 2.29.64zm-4.95-.91h.11c-.29.18-.57.38-.81.54a14.41 14.41 0 0 0-3.68 3.47L18.79 6h-.66c.64-.51 1.26-1 1.9-1.51a29.19 29.19 0 0 1 4.54-2.59zm-2.69 0a21 21 0 0 0-5.06 4.26 17.62 17.62 0 0 1-2.18 0h-.15c.7-.53 1.4-1.1 2.07-1.69a21 21 0 0 1 3.76-2.53c.52-.05 1.03-.04 1.56-.05zm-4.09.22c-1.57 1.16-3 2.78-4.43 4h-.05a19.71 19.71 0 0 0-2.91.23c1-.82 2-1.65 3-2.4.81-.57 1.67-1.1 2.51-1.66.65-.1 1.26-.13 1.88-.18zm-5 .85l.2-.07.56-.13-.62.5A14.77 14.77 0 0 0 9.6 6.47c-.54.11-1.1.2-1.63.35a61.1 61.1 0 0 1 4.84-3.9zM9.15 80.26a16.46 16.46 0 0 0-2.23.63 32.82 32.82 0 0 1 2.19-2.68c.01.7.02 1.39.04 2.05zm-5 .95c1.3-1.77 3.23-2.81 4.92-4.12v.18a21 21 0 0 0-3.76 4.29 11.9 11.9 0 0 0-2.18 1.31c.5-.79.93-1.52 1.04-1.66zm15.72 11a3.82 3.82 0 0 1-.68 0A19.87 19.87 0 0 0 16 92h-1.59a25.08 25.08 0 0 1-4.54-.19l-.63-.11c-1.91-.33-4.79-.82-6.11-1.9a2.07 2.07 0 0 1-.86-1.56A4.86 4.86 0 0 1 4.1 85a12.6 12.6 0 0 1 6.4-2.65 1.14 1.14 0 0 0 1-1.18c-.12-2.8-.14-5.8-.06-9.55-.24-4.55 0-9.28.16-13.85.14-3.17.27-6.17.25-9.08s-.08-5.84-.15-8.74a175.35 175.35 0 0 1 .3-20.56 1.17 1.17 0 0 0-.26-.84 1.19 1.19 0 0 0-.78-.4h-.32c-.25 0-.49 0-.73-.07L9.24 18c-1.91-.33-4.79-.82-6.11-1.9a2.07 2.07 0 0 1-.86-1.57 4.84 4.84 0 0 1 1.83-3.3c2-1.81 5.47-2.9 9.25-2.9h1.18A28.63 28.63 0 0 0 19 8.24a18.07 18.07 0 0 1 6.36.27C28 9.32 28 10.84 28 11.34c-.08 2.67-3.51 6.19-6.79 7a1.14 1.14 0 0 0-.87 1.24c.8 6.76.57 13.84.37 20.7-.11 3.47-.22 7.07-.19 10.56s.13 7.06.22 10.62c.19 6.33.37 12.88.11 19.22a1.19 1.19 0 0 0 .35.84 1.16 1.16 0 0 0 .84.35 11.29 11.29 0 0 1 3.33.42c2 .6 2.83 1.66 2.59 3.24-.45 2.85-4.51 6.72-8.07 6.72zM33.36 85a11.3 11.3 0 0 1-5.42 5.37A9.43 9.43 0 0 0 30.13 86c.63-.56 1.24-1.14 1.82-1.76a20 20 0 0 0 2.3-2.65 9.63 9.63 0 0 1-.89 3.41z" fill="#bf817f"></path></svg></svg> <!----></g></g></g><g transform="translate(24.949937788635992, 0)"><g class="name-imagesvg"><g><rect fill="#bf817f" fill-opacity="0" stroke-width="2" x="0" y="0" width="31.94905790510963" height="50.00009062116127" class="image-rect"></rect> <svg x="0" y="0" width="31.94905790510963" height="50.00009062116127" filtersec="colorsb5908780298" class="image-svg-svg primary" style="overflow: visible;"><svg xmlns="http://www.w3.org/2000/svg" viewBox="-0.0012835860252380371 -0.006074428558349609 56.34114074707031 88.17339324951172"><path d="M54.93 29.16c0-1.65.16-3.4.29-5.2l.09-.08c.13-.09.06-.24-.07-.22.59-8 1.27-16.95-5.37-22.18-2.72-2.15-5.71-.5-7.59 2a4 4 0 0 0-2.67 3.75c0 .31.07.59.11.87v.05a35.23 35.23 0 0 0-1.67 10.35 129.22 129.22 0 0 0-.9 26c-.14-.45-.31-.9-.46-1.35v-.06c-2-5.92-4.43-11.74-6.34-17.63-2.17-6.64-3.52-14-6.52-20.29C20-2.75 11.1-.47 6.28 4.61c-2.9 2.2-3.56 5.67-4.28 9.55C.21 23.71.42 34.06.64 44.08c0 2.49.1 5 .12 7.35 0 2.8-.17 5.85-.36 9.08-.51 8.32-1.07 17.75 2 24.91A4 4 0 0 0 6 87.9a.79.79 0 0 0 .29.12c8.54 1.28 12.3-6 12.16-13.34-.22-14.35-1.25-28.68-1.78-43.06.36 1 .71 2 1.06 3.05C19 38.46 20.29 42 21.62 45l.77 1.68c5.54 12.11 11.27 24.64 16 37.31a3.83 3.83 0 0 0 3.75 2.6 7.08 7.08 0 0 0 3.83-1.34c5.48-1 8.84-6.13 9.63-11.57 2.09-14.51-.94-29.96-.67-44.52zm-.42 38.13C53.15 70 51.39 72.41 49.9 75c0-.92 0-1.81.05-2.73 1.44-2.46 3.05-4.79 4.52-7.27.02.77.03 1.52.04 2.29zm-2.29-37.68c.49-.61 1-1.22 1.44-1.85v3.85c-1.15 1.65-2.64 3.11-3.81 4.77.06-1.22.17-2.43.22-3.64.71-1.03 1.36-2.14 2.15-3.13zm-2.14 1.65V30.1a28.61 28.61 0 0 1 3.58-4.74v1.73c-.77.85-1.55 1.7-2.29 2.59-.37.46-.86 1-1.29 1.58zm3.55 1.21v4c-1.16 1.87-2.8 3.4-4.06 5.18v-.68c.08-1 .11-1.94.17-2.91 1.26-1.91 2.71-3.66 3.89-5.59zm.62 40.36a.54.54 0 0 0-.4.23 63.16 63.16 0 0 1-3.57 5.21l-.44.61v-2.06c1.63-2.75 3.28-5.53 4.63-8.42a43.68 43.68 0 0 1-.22 4.43zm.13-11.57c0 .84 0 1.77.07 2.76-1.44 2-3.15 4-4.5 6.23v-2.69a75.22 75.22 0 0 1 4.39-7c.03.21.04.44.04.7zm0-1.49A44.93 44.93 0 0 0 50 65.51v-3.59c1.4-2.42 2.74-4.84 4.25-7.18.01 1.67.06 3.35.09 5.03zm-.16-5.91A43.64 43.64 0 0 0 50 60.39v-4.88c.46-.82 1-1.6 1.51-2.32.84-1.26 1.81-2.48 2.64-3.77-.03 1.48-.01 2.96.03 4.44zm-.13-5.34c-.72 1-2.67 3.62-4.16 6 0-1.12 0-2.22-.06-3.36 1-1.63 2.09-3.11 3.21-4.64.3-.42.62-.83.92-1.24 0 1.05 0 2.15.05 3.24zm-.12-3.89c-.59.86-1.34 1.65-2 2.43a30.18 30.18 0 0 0-2.17 3c0-1.12 0-2.21-.08-3.34 1.25-2 2.79-3.92 4.07-5.95.06 1.3.09 2.58.14 3.86zm-4.25.76c0-.91 0-1.79-.08-2.71 1.22-2 2.82-3.63 4.07-5.57q0 1.41.09 2.82c-1.28 1.89-2.86 3.58-4.12 5.46zm4-20.69a14.91 14.91 0 0 0-3.54 3.81c0-1.14.06-2.28.08-3.42a39.93 39.93 0 0 0 3.47-4.52c-.02 1.43-.04 2.75-.05 4.13zm0-5.62a22.71 22.71 0 0 1-3.44 4.4v-2.56c.5-.73 1-1.46 1.58-2.16s1.22-1.49 1.77-2.27c-.01.87.02 1.73.04 2.59zm-.33-7.32c.09.66.1 1.33.15 2a38.64 38.64 0 0 0-3.14 3.84c-.26.44.39.56.62.24.82-1.11 1.76-2.14 2.58-3.24v.94c-.86 1.1-1.79 2.15-2.73 3.18l-.59.65v-5.4-.68a.4.4 0 0 0 .32-.16c.83-1.13 1.67-2.26 2.4-3.43a12.63 12.63 0 0 1 .34 2.06zM52.87 9a27.62 27.62 0 0 0-2.57 3.43c0-.93 0-1.89-.11-2.85a15.5 15.5 0 0 0 2-2.58 14.37 14.37 0 0 1 .68 2zM50.2 4a8.67 8.67 0 0 1 1.11 1.39c.22.36.41.73.59 1.09a24.13 24.13 0 0 1-1.84 2.33A9.41 9.41 0 0 0 49 5.33c.39-.44.8-.87 1.2-1.33zm-2.74-1.44a3.83 3.83 0 0 1 2.23 1 7.43 7.43 0 0 0-1.16 1.22c-.11-.13-.19-.27-.31-.39a4.33 4.33 0 0 0-1.5-1c.28-.29.5-.56.74-.83zm-10.1 45.49c.1 1.66.22 3.31.35 4.93-.94-2.07-1.9-4.12-2.86-6.18.39-.65.77-1.31 1.11-2 .46 1.09.9 2.2 1.4 3.25zm-1.72-4c-.38.65-.78 1.3-1.14 2-.38-.81-.76-1.63-1.13-2.44.38-.75.75-1.5 1.09-2.27.37.91.79 1.81 1.18 2.73zm-1.44-3.37c-.39.68-.84 1.35-1.22 2-.1-.19-.18-.38-.27-.57l-.49-1.06a11 11 0 0 0 1.28-2.16zm-1-2.42a17.94 17.94 0 0 1-1.35 2.1c-.35-.73-.68-1.46-1-2.2a9.92 9.92 0 0 0 1.44-2.27c.31.8.64 1.58.95 2.37zm-2.84-7.7c.53 1.55 1.08 3.1 1.64 4.63a14.75 14.75 0 0 1-1.48 2.3c-.62-1.37-1.26-2.75-1.89-4.12.56-.97 1.17-1.89 1.77-2.81zm-.17-.56a11.92 11.92 0 0 0-1.83 2.74c-.53-1.18-1.08-2.34-1.61-3.52.65-1.14 1.35-2.25 2-3.36.5 1.33.97 2.71 1.44 4.14zm-2.42-7.27c.28.86.57 1.72.84 2.57a26.51 26.51 0 0 0-2.23 3.13c-.29-.65-.6-1.29-.88-1.93 0-.08-.08-.21-.12-.3.8-1.11 1.59-2.23 2.36-3.36.03-.09.02-.12.03-.16zm-.32-1l.27.83a.34.34 0 0 0-.43.06 29.48 29.48 0 0 0-2.21 2.77c-.22-.59-.46-1.25-.73-2 .54-.72 1-1.5 1.56-2.22a12.37 12.37 0 0 0 .92-1.39c.17.62.41 1.28.62 1.94zm-.8-2.54c-.63.78-1.26 1.58-1.9 2.35q-.37.45-.72.93c-.4-1.15-.84-2.42-1.36-3.77a.47.47 0 0 0 .4-.15 26.25 26.25 0 0 0 2.37-3.18c.4 1.27.81 2.53 1.21 3.81zm-1.41-4.49c-.06 0-.11.06-.14.12a34.11 34.11 0 0 1-2.59 3.39q-.33-.87-.69-1.74a11.68 11.68 0 0 0 2.75-3.9c.22.72.43 1.43.67 2.13zm-1.69-5.19c.28.77.51 1.56.77 2.34 0 0-.05.05-.06.08-.56 1.5-1.83 2.53-2.79 3.75-.29-.69-.59-1.38-.92-2 0-.16-.12-.32-.17-.48h.05c1-1.22 2.16-2.42 3.08-3.72a1 1 0 0 0 .04.03zm-1.31-2.72a13.14 13.14 0 0 1 1 2 26.35 26.35 0 0 0-3.14 3.65 19.08 19.08 0 0 0-.91-2c1.03-1.21 2.03-2.44 3.05-3.65zm-.32-.45a18.89 18.89 0 0 0-3.09 3.48c-.34-.59-.68-1.2-1-1.74a27.06 27.06 0 0 1 2.89-3.26 11.86 11.86 0 0 1 1.2 1.52zm-1.69-2a16.43 16.43 0 0 0-3 3c-.32-.45-.65-.89-1-1.28.81-.93 1.66-1.83 2.52-2.7a8.63 8.63 0 0 1 1.48.99zM16.76 2.5a7.58 7.58 0 0 1 1.5.57 17.05 17.05 0 0 0-2.51 2.36c-.28-.34-.59-.71-.85-1 .6-.67 1.22-1.31 1.86-1.93zM16 2.36a5.33 5.33 0 0 0-1.53 1.58l-.47-.4a2.79 2.79 0 0 0-2.25-.79h-.62A10 10 0 0 1 16 2.36zm-5.34 84a5.84 5.84 0 0 0 1.77-2.23A6.21 6.21 0 0 0 12.9 82a19.85 19.85 0 0 0 4-6.71c-.47 5.28-2.07 9.92-6.29 11.02zM13 26.93c.41-.46.81-.91 1.21-1.38l.12-.16c.2.48.37 1 .56 1.47a14.67 14.67 0 0 0-3.33 4L11.41 29c.52-.75 1.03-1.43 1.59-2.07zm-1.46.45c.11-1.39.24-2.87.37-4.44l.21-2.55c.69 1.38 1.32 2.84 1.93 4.32a35.57 35.57 0 0 0-2.51 2.67zm4.24 8a.45.45 0 0 0-.38.18c-1 1.41-2.11 2.78-3.06 4.23 0-.24-.05-.44-.07-.69 0-.49-.08-1-.14-1.54.8-1.09 1.53-2.2 2.37-3.26.47-.57.93-1.14 1.35-1.73-.06.97-.05 1.91-.07 2.84zm.11 9.42a24.13 24.13 0 0 0-2.53 3.33c-.18.27-.36.56-.54.85v-2.16a27.81 27.81 0 0 0 3-4.25c0 .75.04 1.5.07 2.26zm-.13-8.94v5.2c-.67 1.67-2 2.92-3 4.36 0-1-.17-2.44-.34-4.32a44.8 44.8 0 0 0 3.34-5.21zm-3 24.94c.5-1 .95-2 1.54-3s1.31-2 2-3c0 1 .08 2.08.11 3.13v.9a35.8 35.8 0 0 1-3.1 4.65c-.21.29-.43.58-.64.88.05-1.18.07-2.36.08-3.53zm.72-3.22c-.22.32-.46.68-.7 1.06v-1.85c1.05-1.3 1.87-2.8 2.88-4.13.17-.22.35-.45.52-.69 0 .67 0 1.34.07 2a40.67 40.67 0 0 0-2.78 3.64zm.62-4.16c-.41.56-.86 1.11-1.3 1.68v-4.44c.35-.66.67-1.32 1-2a24.18 24.18 0 0 1 2.08-3.12c.07 1.75.15 3.5.23 5.26-.5 1-1.47 1.88-2.02 2.65zm1.82-21.66A43.4 43.4 0 0 0 12 36.29c0-.5-.09-1-.13-1.51.72-1 1.42-2 2.24-3 .61-.7 1.24-1.38 1.85-2.08 0 .07.05.14.07.21-.03.63-.03 1.26-.12 1.88zm-4.14 1.57c0-.54-.09-1.08-.14-1.63a.77.77 0 0 0 .32-.2 51.52 51.52 0 0 1 3.13-4.17c.22.59.45 1.17.67 1.76a23.79 23.79 0 0 0-3.99 4.27zM17 74.45c-.05 0-.11 0-.13.09-.83 2.43-2.43 4.22-4 6.09q-.06-1.26-.15-2.52c.43-.66.69-1.41 1.08-2.09a22.67 22.67 0 0 1 1.94-2.64 21 21 0 0 0 1.32-1.82c.05.95 0 1.92-.06 2.89zm.11-3.8a36.21 36.21 0 0 1-2.79 3.52 13.85 13.85 0 0 0-1.68 2.35c-.07-.85-.14-1.71-.21-2.54v-1.37A70.34 70.34 0 0 1 16.9 65c.1 1.81.2 3.73.21 5.65zm-.25-6.07a.33.33 0 0 0-.16.09 36.57 36.57 0 0 0-4.17 6c.06-1.43.11-2.87.14-4.31.73-1.28 1.44-2.58 2.3-3.82A19.25 19.25 0 0 0 16.51 60c.1 1.33.23 2.9.35 4.58zm25.25 19.88a1.76 1.76 0 0 1-1.79-1.24c-4.72-12.74-10.47-25.3-16-37.46l-.77-1.67C22.23 41.26 21 37.72 19.71 34c-2-5.89-4.36-12.57-7.45-17.69a1 1 0 0 0-1.13-.48 1 1 0 0 0-.8.93l-.5 6c-.19 2.16-.37 4.28-.51 6.19.27 3.65.6 7.31.87 10.36.29 3.33.53 6 .53 6.86v3.11c0 8.06 0 16.41-.39 24.73.2 2.33.39 4.63.48 6.87a4.42 4.42 0 0 1-.37 2.38 4.92 4.92 0 0 1-4.13 2.57 2 2 0 0 1-2-1.25c-2.88-6.7-2.33-15.87-1.84-24 .2-3.26.38-6.35.36-9.21 0-2.42-.08-4.89-.12-7.39-.21-9.91-.42-20.15 1.32-29.48 1-5.44 1.76-8.33 6.32-9.62a3.26 3.26 0 0 1 .83-.12 1.9 1.9 0 0 1 .35 0 2 2 0 0 0 .49 0 .71.71 0 0 1 .52.19 24.43 24.43 0 0 1 6 9.38 91 91 0 0 1 3.64 9.29c.54 1.56 1 2.84 1.34 3.61 2.35 5.27 4.79 10.5 7.22 15.74 2.53 5.44 5.06 10.89 7.51 16.37a1 1 0 0 0 2-.52c-1.16-12.66-2.22-27.26-.19-40.18.21-4.5.76-7.89 1.65-10.07a1 1 0 0 0 .06-.53l-.06-.36c0-.22-.06-.44-.08-.68a1.13 1.13 0 0 1 .16-.56c.08-.12.17-.27.26-.38a3.27 3.27 0 0 1 1.88-1 3 3 0 0 1 2.73.7c1.58 1.61 1.51 5.53 1.47 8.12v5.18c0 7.12-.06 14.48-.71 21.78v1.45c.51 13.38.59 25.58.24 37.28a3.8 3.8 0 0 1-1.53 2.51 5.68 5.68 0 0 1-4.02 2.38zm5.45-.73c0-.07.13-.12.18-.19a5.86 5.86 0 0 0 1.95-3c.64-1 1.26-2 2-3 .87-1.23 1.71-2.45 2.48-3.74-.71 4.58-2.4 8.6-6.61 9.93z"></path></svg></svg> <!----></g></g></g><g transform="translate(62.89899569374562, 0)"><g class="name-imagesvg"><g><rect fill="#bf817f" fill-opacity="0" stroke-width="2" x="0" y="0" width="36.79214396322695" height="50.00019564474199" class="image-rect"></rect> <svg x="0" y="0" width="36.79214396322695" height="50.00019564474199" filtersec="colorsb7727202558" class="image-svg-svg primary" style="overflow: visible;"><svg xmlns="http://www.w3.org/2000/svg" viewBox="0.007467794232070446 -0.008975091390311718 67.13200378417969 91.23143005371094"><path d="M66.75 6.74C63.27-1 53.47.15 46.33.18h-4.1c0-.06-.07-.1-.2-.08s-.21.06-.32.08h-3.65a.22.22 0 0 0-.28-.18 1.72 1.72 0 0 0-.21.07A137.29 137.29 0 0 0 20.81 1a.25.25 0 0 0-.21 0h-.13C10.47 2.31 1.41 5.37.82 12.37a7.21 7.21 0 0 0-.74 2.15 7.24 7.24 0 0 0 2.65 6.68c1.32 1.13 3.4 1.69 6.34 1.69a51.26 51.26 0 0 0 9.32-1.17l.83-.16c2.17-.41 4.52-.75 7.31-1.06-.14 5.67-.06 11.75.23 18.94-.38 16 .5 35.23.92 44.49.09 1.85.15 3.25.18 3.95a3.19 3.19 0 0 0 .76 2.48 2.94 2.94 0 0 0 2.2.86 5.69 5.69 0 0 0 1.86-.39c9.9.62 14.38-7.58 13.19-17.09a226.61 226.61 0 0 1-1.54-26.81c0-.72 0-1.45-.08-2.18l.22-.19c.16-.17.05-.42-.2-.36q-.12-3.12-.34-6.31a.2.2 0 0 0 0-.07c-.19-2.64-.39-5.31-.52-8l.19-.15a.23.23 0 0 0-.2-.4c-.07-1.39-.13-2.78-.14-4.15.12-.11.24-.21.35-.33s0-.48-.22-.4h-.12c0-1.55.05-3.09.2-4.61 5 0 10.71-.31 15.25-2.59a5.77 5.77 0 0 0 1.55-1.14C64 14 68.5 10.63 66.75 6.74zm-2.06.73a10.16 10.16 0 0 0-2.38 2A3.57 3.57 0 0 0 61.85 8l.55-.41a11.09 11.09 0 0 1 1.85-1.19 5.87 5.87 0 0 1 .44 1.07zm-2.16-3a15.81 15.81 0 0 0-3.25 2 6.92 6.92 0 0 0-1.09-.11h-1.31l1.35-.94c1-.67 2-1.26 3-1.91a8.85 8.85 0 0 1 1.3.92zm-4.31-2a11.07 11.07 0 0 1 2.22.72 28.27 28.27 0 0 0-4.64 3.23l-3.33.09c1.93-1.14 3.69-2.62 5.58-3.83a.42.42 0 0 0 .17-.27zm-.55-.1c-2.21 1.17-4 3-6.17 4.23l-3.8.11c2.5-1.41 4.6-3.4 7.13-4.71.95.07 1.9.17 2.84.31zM52 1.82c.38 0 .76.05 1.14.07C51 3.31 49 5.41 46.72 6.68l-3 .1c2.86-1.54 5.4-3.56 8.28-4.96zm-3.9-.09h2c-2.57 1.3-4.76 3.51-7.2 5l-2.33.07c2.66-1.36 4.9-3.75 7.51-5.1.03.07.04.04.06.03zm-1.67 0C43.9 3 42 5.55 39.41 6.92L36.13 7a74.53 74.53 0 0 1 8.17-5.2c.7-.03 1.44-.04 2.17-.05zm-6.9.27h1l1.81-.07a75 75 0 0 0-6.94 5.13l-4 .16c1.33-.81 2.6-1.68 3.88-2.62A37.32 37.32 0 0 1 39.53 2zm-2.05 0C35.16 3.56 33 5.69 30.93 7.24h-3.68c2.91-1.51 5.56-3.5 8.32-5.28zm-3.83 0c-2.47 1.67-4.71 3.82-7.27 5.25l-2.78-.08A43.61 43.61 0 0 0 32 2zm-3.33 0c-.83.54-1.63 1.13-2.43 1.7-1.13.8-2.27 1.59-3.45 2.31-.41.24-.82.47-1.24.68a5.57 5.57 0 0 0-.5.39h-.11c.12-.17-.08-.33-.23-.19l-.19.17c-1 0-2.05-.08-3.05-.09q1.74-1.12 3.45-2.31c1.33-.88 2.72-1.66 4.11-2.5 1.23-.04 2.45-.08 3.64-.1zm-5.69.21A78.94 78.94 0 0 0 18.3 7h-.63a1 1 0 0 0-.35 0h-.95c1-.71 1.95-1.44 2.93-2.17a28.83 28.83 0 0 1 3.94-2.45zm-3.47.26l-.62.41c-1.17.8-2.24 1.74-3.34 2.62l-1.63 1.3-.22.2c-1 .06-2 .15-2.91.25a25 25 0 0 0 2.5-1.59c1.35-1 2.73-1.95 4.1-2.93.7-.07 1.41-.13 2.12-.2zm-4.46.59a45.72 45.72 0 0 1-5.86 4.37l-1 .13c2-1.32 3.86-2.91 5.76-4.32.4-.01.74-.05 1.1-.12zm-2.57.5c-2 1.34-3.77 2.92-5.74 4.26-.89.19-1.74.4-2.54.65 2-1.53 4-2.92 6.08-4.34.7-.13 1.44-.34 2.2-.51zM9 5.26a29.2 29.2 0 0 0-4.43 3.66.71.71 0 0 0-.24.13A7.67 7.67 0 0 0 3 9.82a13 13 0 0 1 6-4.56zm33.42 80.53a7.6 7.6 0 0 1-3.52 2.69 6.22 6.22 0 0 0 .76-.78 4.83 4.83 0 0 0 .37-.62c1.41-1.71 2.76-3.47 4.17-5.19a11.16 11.16 0 0 1-1.78 3.9zm-2-22.36c0-.58 0-1.16-.05-1.75.83-1.15 1.63-2.31 2.47-3.45 0 .61.07 1.21.09 1.82a20 20 0 0 0-2.48 3.38zM43 61.17c0 .57.07 1.14.1 1.71-1 1.12-1.69 2.42-2.56 3.62 0-.37-.05-.73-.06-1.06s0-.73 0-1.1A29.62 29.62 0 0 0 43 61.17zm-2.64-.32c0-1.46-.07-2.91-.11-4.37a37.43 37.43 0 0 1 2.53-3.09c0 1.35 0 2.68.06 4a18.35 18.35 0 0 0-2.46 3.46zm-.14-5.29c0-.78 0-1.57-.06-2.34.82-1 1.61-2.07 2.49-3.06a.3.3 0 0 0 .09-.23v2.49a11.28 11.28 0 0 0-2.5 3.14zm2-5.77a17.61 17.61 0 0 0-2.08 2.52c0-1 0-2.07-.08-3.1a23.55 23.55 0 0 1 1.64-2.12 8.23 8.23 0 0 1 1-1v3.79c.05-.17-.24-.29-.46-.09zm-.81-3.38A14.79 14.79 0 0 0 40 48.25c0-1 0-1.93-.08-2.88a12.56 12.56 0 0 1 2.73-2.86v2.57c-.4.42-.83.92-1.22 1.33zm-1.51-2V42.59a37.91 37.91 0 0 1 2.78-3.3v2.46a8.34 8.34 0 0 0-2.76 2.68zm2.7-24.34a.24.24 0 0 0-.2-.05c-1.26.3-2 1.67-2.89 2.57-.09-.94-.2-1.87-.38-2.79h3.51a2.23 2.23 0 0 0-.02.29zm-2.25 2.45a10.49 10.49 0 0 0 2.14-2c-.11.56-.13 1.13-.2 1.68a13.19 13.19 0 0 0-2.05 1.8l-.62.6v-1.39c.24-.21.51-.48.75-.67zm-.71 6a12.13 12.13 0 0 0 1-.92c.49-.51 1-1 1.54-1.46 0 1.17.13 2.36.21 3.55a10.94 10.94 0 0 0-1.87 1.59c-.25.25-.56.54-.86.85v-1.49c.02-.64 0-1.37 0-2.08zm0-.82v-2.24c.45-.42.92-.82 1.4-1.21s.76-.56 1.12-.88v1.64a16.15 16.15 0 0 0-2.5 2.73zm0 5.38c.43-.47.86-.93 1.35-1.37S42 31 42.44 30.63c0 .64.09 1.29.11 1.93a9.43 9.43 0 0 0-2.9 2.78c-.01-.73 0-1.48.01-2.22zm1 2.26a24.67 24.67 0 0 1 1.94-1.89v1.85a10.56 10.56 0 0 0-2.83 3l-.07-1.8c.32-.36.64-.74.96-1.12zm2 .68v2.34a16.22 16.22 0 0 0-2.81 3.2l-.08-2.55c.98-.93 1.91-1.96 2.87-2.95zM44.39 81a26 26 0 0 0-3.33 3.92 13.46 13.46 0 0 0 .46-1.6c.41-.51.81-1 1.19-1.59.62-.93 1.32-1.86 1.89-2.84a13.59 13.59 0 0 1-.21 2.11zm-.06-6.2c.13 1 .23 2 .26 3a23.55 23.55 0 0 0-2.91 4.13 24 24 0 0 0 .12-3.52 20.94 20.94 0 0 0 2.53-3.65zm-.4-2.86c.08.53.15 1.07.23 1.61-.9 1.32-1.56 2.77-2.39 4.13-.06-.93-.14-1.86-.24-2.8a37.94 37.94 0 0 0 2.4-2.98zm-.12-1a16.58 16.58 0 0 0-2.36 3.22c-.07-.61-.14-1.22-.22-1.82.78-1 1.61-2 2.4-3zm-.26-2.33a16.78 16.78 0 0 0-2.41 3l-.06-.46c-.19-1.41-.37-2.76-.47-4a37.1 37.1 0 0 0 2.57-3.28c.1 1.54.22 3.13.37 4.66zm16.27-56.96a1.08 1.08 0 0 0-.1.56 3.37 3.37 0 0 1-2 3.21c-4.16 2.08-9.59 2.36-14.36 2.36h-5.59a1.06 1.06 0 0 0-.83.4 1 1 0 0 0-.19.9c.92 3.66.83 7.71.75 11.63 0 1.8-.08 3.58 0 5.32l.27 8.13c.22 7 .47 14.25.59 21.38a53.66 53.66 0 0 0 .64 5.85c.7 5.25 1.57 11.8-1 15A5.25 5.25 0 0 1 35.88 88c0-.19 0-.36-.31-.32a8.68 8.68 0 0 0-2.42.83 1 1 0 0 0-.49.13c-.91.47-2 .87-2.49.32a1.45 1.45 0 0 1-.19-1c0-.81-.1-2.21-.18-4.08-.43-9.24-1.31-28.46-.92-44.41-.31-7.72-.38-14.09-.2-20.06a1 1 0 0 0-.34-.79 1 1 0 0 0-.81-.28c-3.38.35-6.14.74-8.67 1.22l-.84.16a49.18 49.18 0 0 1-8.95 1.08c-2.39 0-4.06-.41-5-1.19a5.19 5.19 0 0 1-1.93-4.77 5.12 5.12 0 0 1 3.12-3.92l.16-.1A38.88 38.88 0 0 1 17.29 9a3.35 3.35 0 0 0 .36.06h.47c1.61 0 3.22.08 4.86.16 2.36.11 4.76.22 7.15.12 9.94-.42 19.78-.7 28.23-.91a2 2 0 0 1 1.72.64 2.88 2.88 0 0 1-.26 2.58zm.17-5c1.06-.53 2.1-1.12 3.15-1.67a6.8 6.8 0 0 1 .5.57 10.38 10.38 0 0 0-2.28 1.9A3.7 3.7 0 0 0 60 6.64zM63.74 12a9.89 9.89 0 0 1-2.3 2.16 5.21 5.21 0 0 0 .38-1.88 6 6 0 0 0 .49-1.89c.28-.19.55-.38.82-.6.55-.45 1.14-.87 1.71-1.29a5.23 5.23 0 0 1-1.1 3.5z" fill="#bf817f"></path></svg></svg> <!----></g></g></g></g></g></g> <!----></g><defs v-gra="od"></defs></svg>